<svg width="32" height="32" viewBox="0 0 32 32" fill="none" xmlns="http://www.w3.org/2000/svg">
  <defs>
    <linearGradient id="moonGradient" x1="0%" y1="0%" x2="100%" y2="100%">
      <stop offset="0%" style="stop-color:#00FFFF;stop-opacity:1" />
      <stop offset="50%" style="stop-color:#8B5CF6;stop-opacity:1" />
      <stop offset="100%" style="stop-color:#FF6B35;stop-opacity:1" />
    </linearGradient>
    <filter id="glow">
      <feGaussianBlur stdDeviation="2" result="coloredBlur"/>
      <feMerge> 
        <feMergeNode in="coloredBlur"/>
        <feMergeNode in="SourceGraphic"/>
      </feMerge>
    </filter>
  </defs>
  
  <!-- Night background -->
  <rect width="32" height="32" fill="#0A0A0B" rx="4"/>
  
  <!-- Moon crescent -->
  <path d="M8 16C8 11.5817 11.5817 8 16 8C17.1046 8 18.1623 8.2392 19.1186 8.6726C17.9293 10.4983 17.5 12.7174 17.5 15C17.5 17.2826 17.9293 19.5017 19.1186 21.3274C18.1623 21.7608 17.1046 22 16 22C11.5817 22 8 18.4183 8 16Z" fill="url(#moonGradient)" filter="url(#glow)"/>
  
  <!-- Stars -->
  <circle cx="24" cy="10" r="1" fill="#00FFFF" opacity="0.8"/>
  <circle cx="26" cy="14" r="0.5" fill="#8B5CF6" opacity="0.6"/>
  <circle cx="22" cy="24" r="0.8" fill="#FF6B35" opacity="0.7"/>
  <circle cx="9" cy="6" r="0.5" fill="#00FFFF" opacity="0.5"/>
  <circle cx="6" cy="26" r="0.6" fill="#8B5CF6" opacity="0.6"/>
  
  <!-- Casino chip elements -->
  <circle cx="16" cy="16" r="2" fill="none" stroke="#00FFFF" stroke-width="0.5" opacity="0.3"/>
  <circle cx="16" cy="16" r="1" fill="#00FFFF" opacity="0.2"/>
</svg>